<?xml version="1.0" encoding="utf-8"?>
<!-- Generator: Adobe Illustrator 25.0.1, SVG Export Plug-In . SVG Version: 6.00 Build 0)  -->
<svg version="1.1" id="Слой_1" xmlns="http://www.w3.org/2000/svg" xmlns:xlink="http://www.w3.org/1999/xlink" x="0px" y="0px"
	 viewBox="0 0 1440 903" style="enable-background:new 0 0 1440 903;" xml:space="preserve">
<style type="text/css">
	.st0{fill:#938C96;}
	.st1{fill:none;stroke:#F1EDED;stroke-width:2;stroke-linecap:round;stroke-dasharray:8,8;}
</style>
<path class="st0" d="M222.2,263.1c0.8,4.2,1.9,8.3,2.5,12.6c2.4,19.2,4.6,38.4,7,57.5c0.5,3.9,1.3,7.9,2,11.8c0.3,1.7-0.7,3-2.9,3.2
	c-2.5,0.3-5,0.3-7.5,0.6c-17,1.9-34,3.8-50.9,5.8c-19.4,2.3-38.8,4.8-58.2,6.9c-8.5,0.9-17.2,1.2-25.7,1.8c-0.4,0-0.7,0-1.2-0.3
	c5.5-1,10.9-2.3,16.4-3c16-2.2,32.1-4.2,48.2-6.2c21.4-2.7,42.7-5.2,64.1-7.8c3.6-0.4,7.1-1.2,10.7-1.7c1.5-0.2,1.9-0.7,1.7-2.2
	c-2.2-21.9-4.5-43.8-6.6-65.8c-0.4-4.3-0.3-8.6-0.4-12.9C221.6,263.1,221.9,263.1,222.2,263.1L222.2,263.1z"/>
<path class="st0" d="M221.4,259.1c-7.3,1.1-14.6,2.4-21.9,3.3c-21.1,2.6-42.2,5-63.3,7.7c-20.1,2.6-40.1,5.5-60.1,8.3
	c-0.5,0.1-1,0.2-1.5,0.3c1,28.2,6.6,55.9,6.6,84c-0.2,0-0.3,0.1-0.5,0.1c-0.4-1.8-0.9-3.6-1.2-5.4c-1.6-10.8-3.3-21.5-4.8-32.3
	c-2.1-15.3-4-30.6-6-46c-0.5-3.7,0-4.2,3.7-4.6c26.6-2.8,53.1-5.6,79.7-8.5c19.1-2.1,38.1-4.5,57.2-6.7c4-0.5,8-0.5,12-0.8
	L221.4,259.1L221.4,259.1z"/>
<path class="st0" d="M208.9,343.7c-4.4,0.8-8.8,1.7-13.2,2.2c-16.9,2.2-33.9,4.2-50.8,6.5c-16.8,2.3-33.6,4.8-50.4,7.2
	c-2.5,0.4-5,0.7-7.5,1c-2.4,0.3-3.4-0.6-3.6-3c-1.4-16.4-2.7-32.8-4-49.3c-0.6-7.4-0.9-14.8-1.3-22.2c0-0.5,0.1-0.9,0.1-1.4l0.6-0.1
	c0.8,4.4,1.9,8.7,2.5,13.1c2.3,16.4,4.5,32.7,6.7,49.1c0.3,2.3,0.8,4.5,1.1,6.7c0.2,1.4,0.7,1.8,2.1,1.6c16-1.6,32-3,47.9-4.7
	c14.7-1.6,29.4-3.6,44.2-5.3c8.5-0.9,17.1-1.5,25.7-2.2L208.9,343.7L208.9,343.7z"/>
<path class="st0" d="M223.5,335.6c-0.7-3.8-1.7-7.6-2.2-11.5c-2-14.6-3.8-29.1-5.7-43.7c-0.6-4.3-1.5-8.6-2.1-12.9
	c-0.2-1.4-0.8-1.7-2.2-1.6c-13.7,1.5-27.5,2.9-41.2,4.4c-21.6,2.4-43.3,5-64.9,7.5c-4.5,0.5-9.1,0.6-13.6,0.9
	c-0.5,0-0.9-0.1-1.4-0.5c4.5-0.8,9-1.8,13.6-2.4c28.9-3.7,57.9-7.3,86.8-11c8-1,16-2.4,24-3.6c3.1-0.5,4,0.3,4.3,3.2
	c1.4,15.6,2.8,31.3,4.1,46.9c0.7,8,1,16,1.5,24C224.1,335.5,223.8,335.5,223.5,335.6L223.5,335.6z"/>
<path class="st0" d="M66.6,430.6c63.1-9.1,126.5-15.2,190.2-23.9c-13.7-5.8-27.5-9.6-40.7-15.2c0.1-0.3,0.2-0.6,0.3-0.9
	c17.2,5.5,34.5,10.9,51.7,16.4c0,0.2,0.1,0.4,0.1,0.6c-1,0.3-1.9,0.7-2.9,0.8c-10.7,1.2-21.5,2.3-32.2,3.6
	c-46.5,5.6-93,11.2-139.5,16.7c-8.6,1-17.3,1.7-25.9,2.5c-0.4,0-0.8,0-1.1,0L66.6,430.6L66.6,430.6z"/>
<path class="st0" d="M283.2,285.6c1.3,8.3,2.7,16.6,3.8,24.9c2.6,20.1,4.9,40.2,7.4,60.3c0.2,2-1,3.8-3.4,4.5
	c-1.3,0.4-2.7,0.4-4,0.5c-7.7,0.4-15.4,0.8-23.1,0.8c1.8-0.4,3.5-0.9,5.3-1.2c5.8-1.1,11.6-2.3,17.4-3.3c3.3-0.6,3.6-0.8,3.2-4.1
	c-1.9-18.7-4-37.3-5.7-56c-0.8-8.4-1.1-16.9-1.6-25.4c0-0.3,0-0.6,0-0.9L283.2,285.6L283.2,285.6z"/>
<path class="st0" d="M258.6,370.7c-1-6.2-2.3-12.3-3.1-18.5c-2.1-17.2-4-34.5-6-51.7c-0.5-4.5-1.2-9-1.8-13.6c-0.4-3,1-4.6,4.2-4.9
	c4.5-0.4,9-0.5,13.4-0.8c4.4-0.2,8.8-0.4,13.3-0.3c-3.4,0.7-6.8,1.4-10.2,2c-4.6,0.9-9.2,1.7-13.8,2.6c-2.7,0.5-3.1,1-2.9,3.7
	c1.9,17.9,3.9,35.9,5.7,53.8c0.8,8.8,1.2,17.6,1.8,26.3c0,0.4,0,0.7-0.1,1.1C259,370.7,258.8,370.7,258.6,370.7L258.6,370.7z"/>
<path class="st0" d="M268.8,397c5.1,4.4,11.1,6.7,17.6,8.2c5.5,1.3,11.1,1.9,16.6-0.2c1.2-0.5,1.4-1,1.3-2.1
	c-0.3-2.7-1.7-4.9-3.7-6.7c-4.6-4.1-10.2-6.5-16.5-5.8c-6.1,0.6-12.1,2-18.2,3c-0.2,0-0.5,0.1-0.7,0.1c0-0.2-0.1-0.4-0.1-0.4
	c7.8-4.6,16-7.6,25.2-6.6c7.8,0.9,15,7.2,16.8,14.1c0.1,0.4,0.2,0.7,0.2,1.1c0.6,4.1-0.1,5-4.2,6.1c-7.8,2.1-15,0.1-22.1-2.6
	c-4.1-1.5-7.9-3.5-11-6.7C269.7,398.2,269.2,397.6,268.8,397L268.8,397z"/>
<path class="st0" d="M268.3,411.4C203,420.4,137.6,427.8,72,434.5l196.2-23.7L268.3,411.4z"/>
<path class="st0" d="M206.1,411.5c-1.3-0.6-2.8-1.2-4-1.9c-1.7-1.1-3.5-1.2-5.5-1c-31.9,3.9-63.9,7.7-95.8,11.5
	c-3.8,0.5-7.6,0.9-11.4,1.4l-0.1-0.8c0.6-0.1,1.2-0.4,1.8-0.4c26.2-3.4,52.3-6.8,78.5-10.2c9.8-1.2,19.6-2.3,29.5-3.3
	C205.2,406.1,203.8,405.8,206.1,411.5L206.1,411.5z"/>
<path class="st0" d="M72.3,427.7c4.9-3.3,9.8-6.7,14.8-10c6.7-4.3,13.4-8.6,20.2-12.7c1.3-0.8,2.8-1.2,4.3-1.4
	c13.6-1.6,27.3-3.2,41-4.8c20.2-2.4,40.3-4.8,60.5-7.2c0.6-0.1,1.2-0.1,1.8-0.2l0.1,0.7c-3,0.4-6,0.7-9,1.1
	c-30.7,3.8-61.5,7.5-92.2,11.3c-1.1,0.1-2.3,0.5-3.2,1.1c-9.8,6-19.6,12-29.4,18c-2.8,1.7-5.7,3.1-8.5,4.7
	C72.5,428,72.4,427.9,72.3,427.7L72.3,427.7z"/>
<path class="st0" d="M200,406.2c-0.8-0.3-1.4-0.4-1.8-0.7c-2.4-1.6-5-1.6-7.9-1.2c-27.2,3.3-54.3,6.5-81.5,9.7
	c-3.5,0.4-7,0.8-10.5,1.3c0-0.2-0.1-0.5-0.1-0.7c0.6-0.1,1.2-0.3,1.8-0.4c24.4-3.1,48.8-6.2,73.2-9.3c7.3-0.9,14.5-1.7,21.8-2.5
	C198.9,402,198.9,402.1,200,406.2L200,406.2z"/>
<path class="st0" d="M281.3,369.7c-1.4,0.3-2.8,0.7-4.2,1c-3.8,0.9-7.6,1.9-11.4,2.7c-2.1,0.4-2.9-0.2-3.1-2.3
	c-0.9-10.9-1.7-21.7-2.5-32.6c-0.1-1.5,0.1-3.1,0.1-4.7l0.5-0.1c0.8,4.3,1.8,8.6,2.5,12.9c1,6.9,1.9,13.9,2.7,20.9
	c0.2,1.4,0.7,1.9,2.1,1.9c4.4-0.1,8.7-0.1,13.1-0.1L281.3,369.7L281.3,369.7z"/>
<path class="st0" d="M137,388.9c-0.5-1.7-0.9-3.5-1.5-5.2c-0.4-1.4,0.1-2,1.5-2.2c4-0.6,8-1.4,12-1.9c11.5-1.2,23-2.3,34.5-3.5
	l0.1,0.8c-0.5,0.2-1.1,0.4-1.6,0.5c-14.1,2.8-28.4,4.8-42.7,5.8c-1.3,0.1-1.8,0.5-1.7,1.8c0.1,1.3-0.2,2.6-0.3,3.9
	C137.2,388.9,137.1,388.9,137,388.9L137,388.9z"/>
<path class="st0" d="M105.4,409.5c4.3-0.5,8.5-1,12.8-1.5c24.7-3,49.3-6,74-9c2.6-0.3,2.9,0,3.1,2.7c-0.2,0-0.4,0.1-0.5,0
	c-3.4-2-7.1-1-10.7-0.6c-25.6,3-51.1,6-76.7,9.1c-0.6,0.1-1.2,0.1-1.8,0.2C105.5,410,105.4,409.7,105.4,409.5L105.4,409.5z"/>
<path class="st0" d="M186.8,379.1c2.2,5,2.1,5.4-2.7,5.9c-12.9,1.6-25.7,2.9-38.6,4.4c-1.1,0.1-2.3,0-3.4,0l0-0.6
	c6.6-1,13.3-2.1,20-3c7.6-1,15.2-1.7,22.8-2.4c1.2-0.1,1.9-0.4,1.8-1.8C186.5,381,186.7,380.2,186.8,379.1L186.8,379.1z"/>
<path class="st0" d="M208.1,406.1c10.1-2.1,20.4-3.4,30.6-4.3c4.6-0.4,7.8,2.3,11.7,3.5c-0.1,0.2-0.1,0.4-0.2,0.5
	c-2.3-0.7-4.5-1.5-6.8-2.2c-1-0.3-2.1-0.4-3.2-0.3c-9.7,1-19.4,2.1-29.1,3.1c-1,0.1-2,0.1-3,0.1
	C208.2,406.4,208.2,406.2,208.1,406.1L208.1,406.1z"/>
<path class="st0" d="M278.1,355.4c-4.2-1.4-6.9-0.4-7.8,2.6c-0.7,2.4,0.6,4.6,3,5.2c3,0.8,5.2-1,6.1-4.9c0.8,2.6-0.5,5.5-3,6.7
	c-3,1.4-6.3,0.4-8-2.4c-1.7-2.8-1.1-6.2,1.4-8.2C272.5,352.6,275.7,352.8,278.1,355.4L278.1,355.4z"/>
<path class="st0" d="M257.8,298.3c2.5-0.6,5-1.3,7.6-1.7c4-0.6,8-1.1,12-1.5c2.1-0.2,2.5,0.1,2.4,2.3c-0.1,1.3-0.2,2.6-0.5,3.9
	c-0.4-1.3-0.8-2.6-1.2-3.8c-6.8,0.6-13.5,1.1-20.2,1.7C257.9,298.9,257.9,298.6,257.8,298.3L257.8,298.3z"/>
<path class="st0" d="M256,288.9c6.7-2.5,13.6-2.9,20.6-3.7c1.4-0.1,2,0.4,1.9,1.9c-0.1,1.2-0.1,2.4-0.5,3.7
	c-0.2-0.6-0.5-1.2-0.5-1.8c-0.2-1.4-0.8-1.7-2.3-1.6c-5.9,0.6-11.9,1.1-17.8,1.6C256.9,289.1,256.5,289,256,288.9L256,288.9z"/>
<path class="st0" d="M280.1,311.7c-0.4-1.3-0.7-2.6-1.1-4c-6.6,0.6-13.2,1.1-19.8,1.7c0-0.3-0.1-0.5-0.1-0.8c1.7-0.4,3.3-1,5-1.2
	c4.9-0.7,9.8-1.2,14.7-1.9c1.4-0.2,1.9,0.4,1.9,1.6c-0.1,1.5-0.1,3-0.2,4.5L280.1,311.7z"/>
<path class="st0" d="M236.4,400.7c-0.6-0.1-1.2-0.2-1.8-0.4c-3.5-1.4-7-1.3-10.7-0.7c-7.4,1.1-14.8,1.8-22.2,2.7l-0.1-0.8
	c0.8-0.2,1.6-0.5,2.4-0.6c8.1-1,16.2-2.3,24.3-2.9c2.7-0.2,5.6,1.4,8.4,2.2C236.5,400.3,236.4,400.5,236.4,400.7z"/>
<path class="st0" d="M176.4,374.1c-1.8-5.9-2.9-11.4-2-17.4C176.3,359.7,177.3,368,176.4,374.1z"/>
<path class="st0" d="M224.9,397.1c-0.2,0-0.5,0.2-0.7,0.1c-3.1-1.2-6.2-0.4-9.3-0.1c-5,0.6-10.1,1-15.1,1.5c-0.5,0-0.9,0-1.5-0.4
	c0.6-0.1,1.3-0.4,1.9-0.4c6.3-0.8,12.6-1.7,18.9-2.3c1.9-0.2,3.9,0.6,5.9,1L224.9,397.1L224.9,397.1z"/>
<path class="st0" d="M143.5,359.9c2.2,5.6,2.5,11.4,2,17.3C143.6,371.6,142.7,365.9,143.5,359.9z"/>
<path class="st0" d="M200.6,395.4c4.9-1.8,10-1.7,15-1.9c0,0.2,0,0.4,0.1,0.6l-15,1.8L200.6,395.4L200.6,395.4z"/>
<path class="st0" d="M169.2,624.8c7.8,0.7,15.7,1,23.4,2.1c22.4,3.1,44.9,6.4,67.3,9.7c9.7,1.5,19.4,3.3,29.1,5
	c1.5,0.3,2.9,0.8,4.6,0.8c-4.4-1.9-8.7-3.7-13.1-5.6c-20.1-8.3-41.2-11.1-62.8-11.4c-8.8-0.1-17.5-1-26.3-1.6
	c-1.8-0.1-3.7-0.7-5.5-1.2c5.1,0.4,10.2,0.8,15.2,1c10.9,0.5,21.8,0.6,32.7,1.5c8.2,0.7,16.5,2.1,24.6,3.9
	c10.4,2.2,20.8,5.2,30.3,9.8c2.6,1.3,4.9,3.1,7.4,4.6c1.4,0.8,3,1.5,4.5,2.2c1.9,0.9,3.8,1.7,5.5,3c-5.9-1.1-11.9-2.4-17.8-3.4
	c-14.2-2.4-28.5-4.7-42.7-7c-6.5-1.1-13.1-2.2-19.6-3.2c-16.6-2.5-33.2-5-49.8-7.6c-2.3-0.4-4.6-1.1-6.9-1.6L169.2,624.8z"/>
<path class="st0" d="M467,682c-1.3-0.1-2.6-0.1-3.9-0.4c-11.4-2.7-22.7-5.7-34.2-8.1c-23-4.7-46.2-8.9-69.5-11.8
	c-9.3-1.1-18.6-3.1-27.9-4.8c-1.5-0.3-2.9-1.1-4.7-1.8c7.1-0.8,13.8-1.9,20.5-2.1c6.8-0.1,13.7,0.3,20.5,1.4
	c9.9,1.6,19.7,3.6,29.4,6c11.1,2.8,22,6.2,33,9.2c6.3,1.8,12.6,3.3,18.8,5.3c6.1,2,12,4.5,17.9,6.7L467,682z M335.5,654.4
	c0,0.3,0,0.6-0.1,1c28.6,2.5,57,7.4,85.3,12.3c-6.2-1.9-12.3-3.7-18.6-5c-15.7-3.3-31.2-7.7-47.3-8.5
	C348.4,653.9,342,654.3,335.5,654.4z"/>
<path class="st0" d="M211.9,603c4,1.9,7.5,3.6,11.1,5.4l-0.2,0.4c-3.7-1.4-7.4-3.2-11.2-4.2c-5.6-1.4-11.4-2.2-17.2-3.2
	c-2.7-0.5-5.3-0.8-8-1.2l0.1-0.5c6,0.5,12.1,1,18.1,1.5c5.6,0.4,11.1,0.8,16.7,1.3c15.7,1.3,31.1,4.3,46,9.5
	c10.9,3.8,21.5,8.1,30.9,14.5c4.1,2.8,7.7,6.3,11.5,9.5c0.9,0.8,1.7,1.7,2.6,2.5c-0.3,0.3-0.6,0.5-0.8,0.8c-1.2-0.6-2.5-1-3.5-1.8
	c-8.6-6.3-17.2-12.6-27.4-16.7c-19.2-7.6-38.9-11.1-59.6-9.9c-11.7,0.7-23.6,0.5-35.3,0.7c-0.3,0-0.7-0.1-1,0
	c-3.2,1.1-5.9-0.6-8.9-1.5c7.9,1.8,14.6-2.3,22.3-2.1c-2.3,0.7-4.6,1.4-6.9,2.1l0.1,0.5c7.8-0.2,15.6-0.5,23.5-0.7l0-0.4
	c-4.5-0.5-9.1-1.1-13.6-1.6c5.7-0.4,11.5-0.7,17,1.5c0.6,0.3,1.5,0.2,2.2,0.2c13.4-0.3,26.8,0.2,40,3.6c14.4,3.7,28.1,8.6,40.3,16.9
	C283.2,615.6,245.3,603.3,211.9,603L211.9,603z"/>
<path class="st0" d="M434.6,567.8c2.3,2.1,1.6,4.7,1.4,7.3c-0.6-1.9-1.3-3.7-1.9-5.7c-15.7,9.2-34.2,12.6-50.8,19.8
	c-22.4,9.7-41.3,23.2-56.4,40.7c-0.5,0.6-1.1,1.2-2.1,1.6c0.4-0.9,0.8-1.8,1.3-2.5c4.6-6.9,11-12.4,17.7-17.7
	c17.5-13.7,37.5-23.8,59.6-30.7c5.4-1.7,10.7-3.6,15.9-5.8C424.4,572.8,429.4,570.3,434.6,567.8L434.6,567.8z"/>
<path class="st0" d="M328.4,631.7c10.5-7,21.8-12.9,34.5-16.3c9.3-2.5,19-3.9,28.6-5.5c18.7-3.1,37.5-6,56.3-8.9
	c0.5-0.1,0.9-0.1,1.4-0.2c0.1,0.2,0.1,0.4,0.2,0.6c-5.4,1.2-10.7,2.8-16.2,3.6c-14.8,2.2-29.6,4.1-44.4,6.3
	c-19.8,2.9-38.5,8.1-54.9,18.3c-3.8,2.3-7.3,4.9-11.2,7.2c0.9-1,1.8-2,2.7-3L328.4,631.7z"/>
<path class="st0" d="M305.1,627c-24-29.6-57.8-44.9-96.1-54.6c8.2,5.2,14.4,11.3,17.2,19.7c-5.4-10-14.5-16.9-23.6-22.8
	c25.5,6.6,51,14.9,73.4,29.9c10.3,6.9,19.9,14.3,27.2,23.8c0.9,1.1,1.6,2.3,2.4,3.5L305.1,627z"/>
<path class="st0" d="M328.4,631.7c-1,0.7-2,1.4-3,2.1c-0.3,0.1-0.6,0.2-0.9,0.3l-0.5-0.5c3.9-3.5,7.5-7.1,11.6-10.3
	c11.6-9.1,25.7-14.3,40.1-18.9c17.3-5.5,35.2-8.9,53.6-10.6c4.8-0.4,9.5-1.4,14.5-1.7c-1.7,0.6-3.3,1.4-5,1.7
	c-5.5,0.8-11.1,1.6-16.7,2.1c-25.7,2.5-49.5,9.6-72.2,19.8C341.5,619.5,334.5,625.1,328.4,631.7L328.4,631.7z"/>
<path class="st0" d="M467,669.5c-3.3-1-6.6-2-9.9-3.1c-10.8-3.7-21.7-7.2-32.4-11.1c-17.8-6.3-35.8-11.7-54.7-13.3
	c-9.7-0.8-19.5-0.4-29.3-0.5c-0.4,0-0.8,0-1.2,0c0-0.2-0.1-0.5-0.1-0.7c3.6-0.3,7.3-1,10.9-0.8c9.4,0.5,18.9,1.2,28.3,2.1
	c14.3,1.4,27.8,6.2,41.3,10.4c15.2,4.8,30.2,10.2,45.2,15.3c-1-1.7-2.1-3.7-3.2-5.7c0.3-0.1,0.6-0.2,0.9-0.4
	C464.3,664.4,465.6,667,467,669.5L467,669.5L467,669.5z"/>
<path class="st0" d="M334.7,518c-2.9-2-5.7-4.1-9.3-6.6c-0.9,20.7-1.3,40.8-2.9,60.7c-1.6,19.9-4.3,39.7-6.8,59.5
	c0-4.2-0.3-8.5,0.1-12.7c1.4-12,3.4-24,4.6-36c1-10.6,1.3-21.2,1.9-31.8c0.6-10.7,1-21.4,1.6-32.1c0.2-2.9,0.6-5.8,1-8.9
	c4.5,1.5,7.3,4.4,10.1,7.4C335.1,517.5,334.8,517.8,334.7,518L334.7,518z"/>
<path class="st0" d="M400.8,541.6c-3.7,4-7.3,8.1-11.1,12c-13.9,14.4-28,28.7-41.8,43.2c-8.6,9.1-16.2,18.9-22.8,29.3
	c-0.2,0.3-0.4,0.6-0.7,0.8l-0.7-0.4c3.1-5,5.7-10.3,9.5-14.8c8.3-9.8,17-19.2,25.9-28.6c11.9-12.6,24.2-25,36.3-37.5
	c1.5-1.5,3.2-3,4.8-4.4L400.8,541.6L400.8,541.6z"/>
<path class="st0" d="M315.6,635.7c-2.7-5.2-5-10.1-7.7-14.7c-8.4-13.8-20.3-25.1-34.1-34.9c-16.3-11.6-34.4-20.3-52.9-28.4
	c-2.9-1.3-5.6-2.8-8.4-4.1l0.4-0.7c1.9,0.8,3.8,1.6,5.6,2.5c17,7.8,34.1,15.5,49.8,25.6c16.1,10.4,29.9,22.8,40,38.1
	c2.7,4,4.4,8.6,6.5,12.9C315.1,633,315.2,634.1,315.6,635.7L315.6,635.7z"/>
<path class="st0" d="M331.4,637.8c7.9-5,17-7.6,26.9-7.2c10.1,0.4,20.3,1.3,30.3,2.6c19.6,2.5,39.2,5.3,58.7,8
	c5.1,0.7,10.2,1.3,15.3,2l-0.1,0.8c-6.6-0.6-13.2-1-19.8-1.9c-14-1.9-27.9-3.9-41.8-5.9c-8.5-1.2-17-2.3-25.4-3.7
	c-15.1-2.5-29.2-0.3-42.7,4.9C332.3,637.5,331.8,637.6,331.4,637.8L331.4,637.8z"/>
<path class="st0" d="M318.9,626c0.3-3,0.3-6.1,0.9-9c5.1-25.1,10.3-50.3,15.4-75.4c1.8-9,3.7-18,5.5-27c0.2-1.1-0.3-2.2-0.4-3.4
	l1,0.6c0.2-0.4,0.5-0.9,0.7-1.3c0.2-0.4,0.4-0.8,0.7-1.6l1.8,1.9l-0.3,0.3l-1.3-0.7C335,549,327.1,587.5,319.2,626L318.9,626
	L318.9,626z"/>
<path class="st0" d="M347.7,637.5c-4.3,1-8.6,2-12.9,2.9c-0.1-0.2-0.2-0.4-0.3-0.6c4.4-1.2,8.6-2.7,13.1-3.5
	c10.9-2,22.1-1.9,33.2-0.6c20.5,2.5,41,5.5,61.5,8.4c7,1,13.9,2.3,20.8,3.5c0.6,0.1,1.1,0.3,1.6,0.9c-6.2-0.9-12.5-1.8-18.8-2.7
	c-18.1-2.7-36.2-5.6-54.4-7.9c-13.5-1.7-27.1-2.5-40.6-1C349.8,637.1,348.7,637.4,347.7,637.5L347.7,637.5z"/>
<path class="st0" d="M324.3,638c3.6-4.1,8.6-6.5,13.9-8.6c12.2-4.8,25.2-7.8,38.4-9.6c24.5-3.3,49.1-6.2,73.7-9.2
	c1.8-0.2,3.6-0.4,5.4-0.5c-5.2,2.6-11.1,2.6-17,3.2c-17.2,1.7-34.5,3.4-51.6,5.8c-11.4,1.6-22.6,4-33.7,6.6
	C342.9,628.2,333.2,632.4,324.3,638L324.3,638z"/>
<path class="st0" d="M353.7,517.1c-1.1-1.3-2.3-2.5-3.6-4.1c-1.2,4.6-2.4,8.8-3.5,13c-3.6,14.2-7.1,28.4-10.8,42.6
	c-3.4,12.7-7,25.4-10.6,38.1c-0.6,2.3-1.2,4.5-1.8,6.8c-0.2,0-0.5-0.1-0.7-0.1c0.4-1.9,0.6-3.8,1.1-5.6c2.7-9.7,5.5-19.4,8.2-29.2
	c2-7.5,3.8-15.1,5.7-22.6c3.1-11.8,6.2-23.6,9.3-35.4c0.6-2.2,0.7-4.6,1.2-6.8c0.2-0.7,0.6-1.9,1.1-1.9c0.7-0.1,1.9,0.5,2.3,1.1
	C352.6,514.1,354.5,515.2,353.7,517.1L353.7,517.1L353.7,517.1z"/>
<path class="st0" d="M351.5,627.9c5-0.6,9.9-1.8,14.9-1.7c11.3,0.1,22.6,0.8,33.9,1.4c15.3,0.7,30.1,4.6,45.2,7.1
	c4.1,0.7,8.2,0.9,12.4,1.2c3.7,0.3,4.1,2.9,5.3,5.2c-0.3,0-0.5,0.1-0.5,0.1c-2.1-3.3-5.5-3.8-9.4-4.3c-11.5-1.6-23-3.6-34.4-5.7
	c-21.7-3.9-43.4-4.8-65.1-2.6c-0.7,0.1-1.4,0.1-2.2,0.2C351.6,628.4,351.5,628.2,351.5,627.9z"/>
<path class="st0" d="M300.5,614.8c-18.8-21.9-42.3-38.4-70.7-49.5c2.7,3,5,5.8,5.3,9.5l1-0.7c-2.4-2.5-4.7-5.1-7.3-7.4
	c-2.5-2.3-5.2-4.3-8.3-6.8c1.1,0,1.4-0.1,1.7,0c17.8,8.5,35.6,17,51.6,28.3c10.3,7.3,19.4,15.5,26.7,25.2c0.2,0.3,0.4,0.6,0.6,0.9
	L300.5,614.8z"/>
<path class="st0" d="M334.7,518c0.6-0.5,1.4-0.9,1.6-1.5c0.6-1.4,0.9-2.8,1.4-4.6c0.6,3.2-16,89.3-18.3,93.4
	c0.6-4.1,1.1-8.3,1.9-12.3c2.3-11.4,4.8-22.7,7-34.1c2.5-12.9,4.9-25.9,7.2-38.8C335.7,519.3,335,518.6,334.7,518
	C334.7,518,334.7,518,334.7,518z"/>
<path class="st0" d="M347.6,637.6c5.8,0,11.6-0.5,17.4,0.1c7.7,0.8,15.5,1.8,23.1,3.7c20.9,5,41.6,10.5,62.4,15.7
	c3.7,0.9,7.4,1.8,11.2,2.7c-1.4-2.7-2.8-5.1-4.1-7.6l0.7-0.3c1.8,2.9,3.7,5.9,5.5,8.9c-4.4-0.8-8.8-1.4-13.1-2.5
	c-10.9-2.8-21.8-5.8-32.7-8.8c-18.5-5-37.1-9.8-56.3-11c-5.3-0.3-10.6-0.2-15.7-0.2c0.4-0.2,1-0.5,1.7-0.8L347.6,637.6L347.6,637.6z
	"/>
<path class="st0" d="M353.7,517.1c1.6-1.3,3.2-0.9,5,0c4.5,2.3,7,6,9.8,9.7c-3.8-3.1-7.7-6.2-12-9.7c-7,24.6-11.7,49-22.5,71.6
	c1.3-3.6,2.7-7.2,3.9-10.9c4-12.9,8.1-25.8,11.9-38.8c1.9-6.3,3.2-12.8,4.7-19.2C354.6,519,353.9,518,353.7,517.1L353.7,517.1
	L353.7,517.1z"/>
<path class="st0" d="M429.5,663.9c-4.2-1-8.4-2-12.5-3.1c-11.5-3-22.9-6.2-34.4-9.1c-9.7-2.5-19.5-3.3-29.4-3.5
	c-0.4,0-0.8-0.1-1.5-0.2c3.3-0.9,11.9-1.1,17.3,0.1c12.8,2.8,25.6,5.8,38.4,8.9c7.5,1.8,14.8,4.1,22.2,6.2
	C429.5,663.5,429.5,663.7,429.5,663.9L429.5,663.9z"/>
<path class="st0" d="M374.9,610.8c21-5.2,43-7,64.6-10.2c-0.9,0.3-1.8,0.6-2.7,0.9c-1,0.3-2,0.7-3.1,0.8c-7.5,1.1-15,2-22.5,3.2
	c-11.3,1.8-22.5,3.7-33.8,5.5c-0.8,0.1-1.6,0.2-2.3,0.3C375,611.3,375,611.1,374.9,610.8L374.9,610.8z"/>
<path class="st0" d="M290.9,627.8c-11-3.3-22-7.4-33.5-9.8c-11.4-2.4-23.3-3.2-35.4-4.8C240.4,612,279.7,620.5,290.9,627.8
	L290.9,627.8z"/>
<path class="st0" d="M279.1,629.5c-20.1-8.4-41.3-10.1-62.6-11.2l0.1-0.7c7,0.4,14,0.6,20.9,1.4c8.2,0.9,16.5,2.2,24.6,3.7
	C268.2,623.8,273.9,626.2,279.1,629.5L279.1,629.5z"/>
<path class="st0" d="M369.1,591.3c11.6-10.6,23.1-21.2,34.7-31.8c0.2,0.2,0.4,0.4,0.6,0.5C393.6,571.4,382.4,582.3,369.1,591.3
	L369.1,591.3z"/>
<path class="st0" d="M356.3,581.9c2.1-8.1,3.7-16.3,6.3-24.2c2.6-7.8,6.2-15.4,9.4-23l0.7,0.2c-1.2,3.7-2.1,7.6-3.7,11.2
	c-4.4,9.5-8.2,19.1-9.6,29.5c-0.3,2.3-1.5,4.5-2.2,6.7L356.3,581.9z"/>
<path class="st0" d="M410.6,654.1c-10.6-2.8-20.3-5.8-30.2-8c-10-2.3-20.2-2.1-30.5-2C357.8,641.4,384.5,643.2,410.6,654.1z"/>
<path class="st0" d="M389.9,597.1c12.9-8.1,27.1-13.4,42.2-17.2C418.1,585.6,404.1,591.3,389.9,597.1z"/>
<path class="st0" d="M280.5,604.9c-4.4-1.6-8.1-3.3-11.9-4.1c-5.7-1.2-11.5-1.7-17.2-2.7c-5.6-1-11.3-2.1-16.9-3.6
	c1.1,0.1,2.2,0.1,3.3,0.3c6.9,0.9,13.7,1.8,20.6,2.6C266.5,598.2,275.5,601.1,280.5,604.9z"/>
<path class="st0" d="M319.1,636.9c1.4-14.6,7.2-28.1,12.5-41.6C327.5,609.2,323.3,623.1,319.1,636.9z"/>
<path class="st0" d="M323.2,653.8c-1.8-2.7-3.6-5.5-5.4-8.3c-2.8,1.4-5.3,2.6-7.8,3.8c-0.2-0.2-0.3-0.4-0.5-0.5c2-2.6,4.5-5,7.7-6.2
	c1.8-0.7,3.6,1,4.2,2.7c1,2.7,1.7,5.5,2.5,8.3C323.7,653.6,323.4,653.7,323.2,653.8L323.2,653.8z"/>
<path class="st0" d="M276.7,593c-10.6-6.8-22.9-9.9-34.7-13.9C254.6,581.5,266.8,584.7,276.7,593z"/>
<path class="st0" d="M277.7,599c8.1,3.3,14.2,8.7,20.1,14.5C291,608.7,284.3,603.8,277.7,599z"/>
<path class="st0" d="M173.2,615.8c6.7-1.6,13.4-0.9,20.2,0.1l0,0.7C186.7,616.3,180,616,173.2,615.8L173.2,615.8z"/>
<path class="st0" d="M406,542.4c1.4,3.5,3.1,6.9,4,10.4c0.3,1.2-1.6,2.7-2.5,4.1c-0.2-0.1-0.4-0.2-0.7-0.4c0-0.1-0.1-0.3-0.1-0.4
	c1.9-1.7,2.1-3.5,1-5.8c-1.2-2.5-1.8-5.1-2.7-7.7L406,542.4L406,542.4z"/>
<path class="st0" d="M467,669.5c0.7,3.6,1.5,7.1,2.2,10.7C467.1,676.8,465.7,673.3,467,669.5L467,669.5L467,669.5z"/>
<path class="st0" d="M173.4,611.5c-2,2.1-4,4.3-6,6.4c0.3-3.3,3.5-4.6,5.3-6.9L173.4,611.5L173.4,611.5z"/>
<path class="st0" d="M335.5,654.4c6.4-0.1,12.9-0.5,19.3-0.2c16.1,0.7,31.6,5.2,47.3,8.5c6.3,1.3,12.5,3.1,18.6,5
	c-28.4-4.9-56.7-9.8-85.3-12.3C335.5,655,335.5,654.7,335.5,654.4z"/>
<path class="st1" d="M-292.3-366.7c-14.4,531.3,553.4,521.1,460.7,425.4c-38.7-40-89.7,51.8-80.2,191.6 M655.2,896.8
	c-164.5-45-284.5-150-370.9-241.5 M140.2,451.3c17.1,37.6,38.9,75.7,66.2,113.5"/>
</svg>
