<svg width="612" height="608" viewBox="0 0 612 608" fill="none" xmlns="http://www.w3.org/2000/svg">
<path d="M78.9996 362C125.5 127.5 280.3 83.7426 466.331 209.026C651.548 333.761 417.801 602.375 233.041 517.106C123.171 466.4 132.277 504.133 93.5004 490.5C68.7291 481.791 71.6319 399.155 78.9996 362Z" fill="url(#paint0_linear_200_1427)" fill-opacity="0.8"/>
<path d="M496.5 408C329.763 476.96 132.999 540.5 64.4994 334.5C-7.73196 117.278 207.352 313.293 397.821 236.029C496.5 196 554 236.03 568.321 277.534C578.352 306.602 577.5 374.5 496.5 408Z" fill="url(#paint1_linear_200_1427)" fill-opacity="0.4"/>
<defs>
<linearGradient id="paint0_linear_200_1427" x1="393.411" y1="-393.76" x2="207.179" y2="711.548" gradientUnits="userSpaceOnUse">
<stop stop-color="#20D2E9"/>
<stop offset="1" stop-color="#F54678"/>
</linearGradient>
<linearGradient id="paint1_linear_200_1427" x1="-431.392" y1="924.83" x2="477.232" y2="165.618" gradientUnits="userSpaceOnUse">
<stop stop-color="#20D2E9"/>
<stop offset="1" stop-color="#F54678"/>
</linearGradient>
</defs>
</svg>
