<svg width="48" height="48" viewBox="0 0 48 48" fill="none" xmlns="http://www.w3.org/2000/svg">
<path fill-rule="evenodd" clip-rule="evenodd" d="M17.653 6.50168C19.4044 6.41841 19.9628 6.3999 24.4242 6.3999C28.8856 6.3999 29.4441 6.41995 31.194 6.50168C32.9439 6.58342 34.1384 6.87179 35.1836 7.28971C36.278 7.71688 37.271 8.38462 38.0922 9.24822C38.9283 10.0948 39.5733 11.1188 39.9854 12.2507C40.3916 13.3302 40.6693 14.5639 40.7499 16.3682C40.8305 18.1802 40.8484 18.757 40.8484 23.3633C40.8484 27.9712 40.829 28.548 40.7499 30.3569C40.6708 32.1612 40.3916 33.3949 39.9854 34.4744C39.5733 35.6065 38.9272 36.6321 38.0922 37.48C37.271 38.3436 36.278 39.0098 35.1836 39.4354C34.1384 39.8549 32.9439 40.1417 31.197 40.225C29.4441 40.3083 28.8856 40.3268 24.4242 40.3268C19.9628 40.3268 19.4044 40.3067 17.653 40.225C15.906 40.1433 14.7115 39.8549 13.6664 39.4354C12.5703 39.0097 11.5772 38.3425 10.7563 37.48C9.92071 36.6329 9.27409 35.6077 8.86153 34.4759C8.45689 33.3964 8.17917 32.1627 8.09855 30.3584C8.01792 28.5464 8 27.9697 8 23.3633C8 18.7555 8.01941 18.1787 8.09855 16.3713C8.17768 14.5639 8.45689 13.3302 8.86153 12.2507C9.2747 11.1189 9.92181 10.0938 10.7578 9.24668C11.5776 8.38386 12.5696 7.71602 13.6649 7.28971C14.71 6.87179 15.9045 6.58496 17.6515 6.50168H17.653ZM31.0611 9.5551C29.3291 9.47337 28.8095 9.45641 24.4242 9.45641C20.039 9.45641 19.5194 9.47337 17.7873 9.5551C16.1852 9.63067 15.3162 9.90671 14.7369 10.1396C13.971 10.448 13.423 10.8135 12.8481 11.4072C12.3032 11.9547 11.8839 12.6213 11.6208 13.358C11.3953 13.9563 11.1281 14.8539 11.0549 16.5086C10.9758 18.2974 10.9593 18.8341 10.9593 23.3633C10.9593 27.8926 10.9758 28.4292 11.0549 30.2181C11.1281 31.8728 11.3953 32.7703 11.6208 33.3687C11.8836 34.1043 12.3031 34.772 12.8481 35.3195C13.3782 35.8824 14.0247 36.3157 14.7369 36.5871C15.3162 36.82 16.1852 37.096 17.7873 37.1716C19.5194 37.2533 20.0375 37.2703 24.4242 37.2703C28.811 37.2703 29.3291 37.2533 31.0611 37.1716C32.6632 37.096 33.5322 36.82 34.1115 36.5871C34.8775 36.2787 35.4255 35.9132 36.0003 35.3195C36.5453 34.772 36.9649 34.1043 37.2277 33.3687C37.4531 32.7703 37.7204 31.8728 37.7935 30.2181C37.8727 28.4292 37.8891 27.8926 37.8891 23.3633C37.8891 18.8341 37.8727 18.2974 37.7935 16.5086C37.7204 14.8539 37.4531 13.9563 37.2277 13.358C36.929 12.5669 36.5752 12.0009 36.0003 11.4072C35.4702 10.8444 34.8248 10.4113 34.1115 10.1396C33.5322 9.90671 32.6632 9.63067 31.0611 9.5551ZM22.3264 28.5927C23.498 29.0964 24.8025 29.1644 26.0173 28.785C27.232 28.4057 28.2815 27.6025 28.9866 26.5127C29.6917 25.423 30.0085 24.1142 29.8831 22.8099C29.7577 21.5056 29.1977 20.2867 28.2988 19.3615C27.7258 18.7701 27.033 18.3172 26.2702 18.0355C25.5074 17.7538 24.6936 17.6503 23.8874 17.7324C23.0813 17.8146 22.3027 18.0803 21.6079 18.5105C20.9131 18.9406 20.3193 19.5246 19.8692 20.2203C19.4191 20.9159 19.124 21.706 19.005 22.5336C18.886 23.3612 18.9462 24.2058 19.1812 25.0065C19.4162 25.8072 19.8202 26.5442 20.364 27.1643C20.9079 27.7844 21.5781 28.2722 22.3264 28.5927ZM18.4548 17.1979C19.2387 16.3882 20.1693 15.746 21.1936 15.3078C22.2178 14.8696 23.3156 14.6441 24.4242 14.6441C25.5329 14.6441 26.6306 14.8696 27.6549 15.3078C28.6791 15.746 29.6098 16.3882 30.3937 17.1979C31.1776 18.0076 31.7994 18.9688 32.2237 20.0266C32.648 21.0845 32.8663 22.2183 32.8663 23.3633C32.8663 24.5084 32.648 25.6422 32.2237 26.7001C31.7994 27.7579 31.1776 28.7191 30.3937 29.5288C28.8105 31.164 26.6632 32.0826 24.4242 32.0826C22.1852 32.0826 20.038 31.164 18.4548 29.5288C16.8716 27.8936 15.9821 25.6758 15.9821 23.3633C15.9821 21.0509 16.8716 18.8331 18.4548 17.1979ZM34.7386 15.9426C34.9329 15.7533 35.0884 15.5257 35.196 15.2733C35.3036 15.0208 35.361 14.7486 35.3649 14.4728C35.3688 14.1971 35.319 13.9233 35.2186 13.6677C35.1183 13.4121 34.9692 13.1799 34.7804 12.9849C34.5916 12.7898 34.3667 12.6359 34.1193 12.5322C33.8718 12.4285 33.6067 12.3772 33.3397 12.3812C33.0727 12.3852 32.8091 12.4445 32.5647 12.5556C32.3203 12.6667 32.0999 12.8273 31.9167 13.028C31.5603 13.4182 31.3651 13.9365 31.3727 14.4728C31.3803 15.0092 31.59 15.5214 31.9572 15.9007C32.3245 16.28 32.8204 16.4966 33.3397 16.5044C33.859 16.5122 34.3608 16.3107 34.7386 15.9426Z" fill="#F9F9F9"/>
</svg>
