<svg width="67" height="49" viewBox="0 0 67 49" fill="none" xmlns="http://www.w3.org/2000/svg">
<path d="M0.75 47.4758V47.7258H1H16.9314H17.1814V47.4758V45.0647V44.8147H16.9314H4.11765V36.4388H16.1525H16.4025V36.1888V33.7777V33.5277H16.1525H4.11765V25.4664H16.9314H17.1814V25.2164V22.8401V22.5901H16.9314H1H0.75V22.8401V47.4758ZM22.8769 25.6357V25.8857H23.1269H39.0583H39.3083V25.6357V23.2245V22.9745H39.0583H26.2446V14.5987H38.2794H38.5294V14.3487V11.9375V11.6875H38.2794H26.2446V3.62621H39.0583H39.3083V3.37621V1V0.75H39.0583H23.1269H22.8769V1V25.6357ZM43.9073 48.1299L44.0244 48.3225L44.2281 48.2259C45.4782 47.6326 46.5748 46.8838 47.5159 45.9787L47.5159 45.9786C48.4838 45.0473 49.291 43.9041 49.9394 42.5532C50.6127 41.1766 51.1142 39.546 51.4477 37.6652L51.4478 37.6647C51.7814 35.7597 51.9472 33.5315 51.9472 30.9822V25.5362H62.847V47.4758V47.7258H63.097H66H66.25V47.4758V22.8401V22.5901H66H48.9711H48.7211V22.8401V30.2483C48.7211 32.8262 48.5799 34.9903 48.2994 36.7434L48.299 36.7462C48.0417 38.4778 47.6458 39.8964 47.1168 41.0086L47.1168 41.0086L47.115 41.0125C46.6074 42.1284 45.9769 43.031 45.227 43.7268C44.4653 44.41 43.5984 45.0035 42.6254 45.5065L42.3874 45.6296L42.5266 45.8585L43.9073 48.1299Z" fill="#D73B78" stroke="#D73B78" stroke-width="0.5"/>
</svg>
