<svg width="116" height="106" viewBox="0 0 116 106" fill="none" xmlns="http://www.w3.org/2000/svg">
<path d="M114.106 0L95.1667 76.7455L90.2424 54.7097C97.5657 54.7097 103.753 56.9893 108.803 61.5484C113.601 66.1075 116 72.313 116 80.1649C116 87.7634 113.601 93.9689 108.803 98.7814C103.753 103.594 97.6919 106 90.6212 106C83.298 106 77.3636 103.467 72.8182 98.4014C68.2727 93.589 66 87.5102 66 80.1649C66 77.632 66.2525 75.0992 66.7576 72.5663C67.0101 70.2867 67.6414 67.5006 68.6515 64.2079C69.4091 61.1685 70.6717 57.3692 72.4394 52.81L90.2424 0H114.106Z" fill="#D73B78"/>
<path d="M48.1061 0L29.1667 76.7455L24.2424 54.7097C31.5657 54.7097 37.7525 56.9893 42.803 61.5484C47.601 66.1075 50 72.313 50 80.1649C50 87.7634 47.601 93.9689 42.803 98.7814C37.7525 103.594 31.6919 106 24.6212 106C17.298 106 11.3636 103.467 6.81818 98.4014C2.27273 93.589 -3.8147e-06 87.5102 -3.8147e-06 80.1649C-3.8147e-06 77.632 0.252522 75.0992 0.757572 72.5663C1.0101 70.2867 1.64141 67.5006 2.65151 64.2079C3.40909 61.1685 4.67172 57.3692 6.4394 52.81L24.2424 0H48.1061Z" fill="#D73B78"/>
</svg>
