<svg width="48" height="48" viewBox="0 0 48 48" fill="none" xmlns="http://www.w3.org/2000/svg">
<path d="M43.5619 13.1712C42.1365 13.7747 40.6052 14.1825 38.9954 14.3668C40.6564 13.4172 41.8991 11.9226 42.4916 10.162C40.931 11.0476 39.223 11.671 37.4419 12.0051C36.2441 10.7832 34.6576 9.97335 32.9288 9.70121C31.1999 9.42907 29.4253 9.70988 27.8806 10.5C26.3359 11.2902 25.1075 12.5455 24.386 14.0711C23.6645 15.5966 23.4904 17.3071 23.8907 18.9369C20.7285 18.7852 17.6351 18 14.8111 16.6321C11.9872 15.2643 9.49585 13.3444 7.49878 10.9971C6.81593 12.1225 6.42329 13.4273 6.42329 14.8169C6.42252 16.0679 6.74497 17.2998 7.362 18.4031C7.97904 19.5065 8.87159 20.4473 9.96046 21.142C8.69766 21.1036 7.46271 20.7776 6.35842 20.1912V20.289C6.35829 22.0436 6.99352 23.7441 8.15634 25.1021C9.31915 26.4602 10.9379 27.392 12.738 27.7395C11.5665 28.0424 10.3383 28.087 9.14616 27.87C9.65403 29.3797 10.6433 30.6999 11.9755 31.6457C13.3077 32.5915 14.9161 33.1157 16.5756 33.1447C13.7585 35.2576 10.2795 36.4036 6.69813 36.3986C6.06373 36.3988 5.42987 36.3634 4.7998 36.2926C8.4351 38.5257 12.6668 39.7109 16.9887 39.7063C31.6188 39.7063 39.6168 28.1293 39.6168 18.0888C39.6168 17.7626 39.6082 17.4331 39.5929 17.1069C41.1485 16.032 42.4914 14.701 43.5585 13.1761L43.5619 13.1712Z" fill="#F9F9F9"/>
</svg>
