<svg width="48" height="48" viewBox="0 0 48 48" fill="none" xmlns="http://www.w3.org/2000/svg">
<path fill-rule="evenodd" clip-rule="evenodd" d="M43.846 12.9337C44.1337 11.9353 43.846 11.2002 42.468 11.2002H37.9181C36.7603 11.2002 36.2264 11.8347 35.937 12.5351C35.937 12.5351 33.623 18.3792 30.3454 22.1753C29.2846 23.2761 28.8027 23.6253 28.2238 23.6253C27.9343 23.6253 27.4993 23.2761 27.4993 22.2759V12.9337C27.4993 11.7341 27.1804 11.2002 26.2166 11.2002H19.0616C18.3388 11.2002 17.9038 11.7561 17.9038 12.2845C17.9038 13.4201 19.5435 13.6834 19.7116 16.8797V23.8247C19.7116 25.3479 19.4464 25.624 18.8675 25.624C17.3248 25.624 13.5722 19.7524 11.345 13.0343C10.9134 11.7268 10.4766 11.2002 9.31353 11.2002H4.76016C3.46019 11.2002 3.2002 11.8347 3.2002 12.5351C3.2002 13.7821 4.74283 19.9773 10.3847 28.1712C14.146 33.7666 19.4412 36.8002 24.265 36.8002C27.1578 36.8002 27.5149 36.1273 27.5149 34.9661V30.7367C27.5149 29.389 27.7887 29.1202 28.7057 29.1202C29.3816 29.1202 30.5378 29.4713 33.2382 32.1684C36.3235 35.3666 36.8314 36.8002 38.5681 36.8002H43.118C44.418 36.8002 45.0697 36.1273 44.6953 34.7961C44.2828 33.4722 42.8095 31.5504 40.8561 29.2701C39.7953 27.9719 38.2041 26.573 37.7205 25.8727C37.0463 24.9748 37.2387 24.5744 37.7205 23.7753C37.7205 23.7753 43.2671 15.682 43.8443 12.9337H43.846Z" fill="#F9F9F9"/>
</svg>
